<svg width="34" height="40" viewBox="0 0 34 40" fill="none" xmlns="http://www.w3.org/2000/svg">
<path d="M32.475 28.865L32.725 28.7206V28.4319V15.0276L33.5 14.5802V29.1576L17 38.6843L0.5 29.1576V10.1041L16.9999 0.57744L29.4699 7.78562L28.7072 8.22405L17.2501 1.60619L17 1.46173L16.7499 1.6062L1.51435 10.4073L1.26445 10.5517V10.8403V28.4319V28.7207L1.51457 28.865L16.7501 37.6556L17.0001 37.7998L17.25 37.6555L32.475 28.865Z" fill="black" stroke="black"/>
<path d="M12.7315 28.4319H10.1852V19.8844H18.6799C19.4829 19.8738 20.2542 19.5463 20.8142 18.9757C21.3847 18.4052 21.7017 17.6339 21.7017 16.8309C21.7017 16.4294 21.6277 16.0385 21.4798 15.6687C21.3213 15.2989 21.0994 14.9714 20.8142 14.6967C20.5395 14.4114 20.2014 14.1895 19.8421 14.031C19.4723 13.8726 19.0814 13.7986 18.6799 13.7986H10.1852V11.1995H18.6905C20.1802 11.21 21.6066 11.8017 22.6526 12.8583C23.7091 13.9148 24.3008 15.3412 24.3114 16.8203C24.3219 17.9614 23.9733 19.0708 23.3182 20.0006C22.716 20.8881 21.8602 21.5854 20.867 22.008C19.8844 22.325 18.8595 22.4729 17.8241 22.4624H12.7315V28.4319Z" fill="black"/>
<path d="M24.2585 28.2207H21.2896L18.9969 24.2163C19.9055 24.1635 20.8036 23.9733 21.6594 23.6775L24.2585 28.2207Z" fill="black"/>
<path d="M30.45 11.8863L32.2144 12.8689L33.9683 11.8968V9.83656L32.2144 8.82227L30.4605 9.83656V11.8863H30.45Z" fill="black"/>
</svg>
