<svg width="41" height="34" viewBox="0 0 41 34" fill="none" xmlns="http://www.w3.org/2000/svg">
<path d="M10.5627 18.4829L1.66549 15.3291L39.6853 1.34755L32.7812 32.6731L23.4844 26.2319C22.504 25.5374 21.0548 25.3883 20.0408 26.3003L14.9304 30.2752L14.2013 28.0452C14.5277 28.2413 14.9069 28.3226 15.2652 28.2916C15.8698 28.2394 16.767 27.7723 16.8241 26.7512L17.2956 23.1654L17.3063 23.0843V23.0024C17.3063 22.7861 17.4474 22.4968 17.8623 22.099L32.9532 8.65892C33.011 8.61808 33.0533 8.58301 33.074 8.56589L33.0769 8.56348C33.1443 8.50775 33.2126 8.44564 33.2758 8.38596C33.4039 8.26513 33.5544 8.11324 33.7122 7.94909C34.0299 7.61842 34.4124 7.20083 34.7706 6.79724C35.1274 6.39534 35.4735 5.99245 35.715 5.69229C35.8279 5.55195 35.9483 5.39679 36.0332 5.26586C36.0562 5.23037 36.0876 5.17984 36.1187 5.12074L36.1193 5.11945C36.1391 5.08194 36.2105 4.94605 36.2485 4.76328C36.2664 4.67712 36.3059 4.45191 36.2326 4.17741C36.1402 3.83148 35.8839 3.48554 35.4639 3.32639C35.1316 3.20046 34.847 3.25151 34.7402 3.27534C34.6114 3.30412 34.5138 3.34709 34.4634 3.37105L34.3993 3.40149L34.3392 3.43897L12.767 16.8748C11.872 17.2681 11.32 18.0846 11.2368 18.9779L11.1421 18.6883L10.5627 18.4829Z" stroke="black" stroke-width="2.5"/>
</svg>
